<svg xmlns="http://www.w3.org/2000/svg" viewBox="0 0 231.51 72.82"><defs><style>.cls-1{fill:#fff;}</style></defs><title>MainV2WhiteAsset 2</title><g id="Layer_2" data-name="Layer 2"><g id="Layer_2-2" data-name="Layer 2"><path class="cls-1" d="M40.75,12.5a8.25,8.25,0,0,1,0,16.5H27.5L40,41.5h1A20.75,20.75,0,0,0,41,0H0L12.5,12.5Z"/><path class="cls-1" d="M72.06,58.07h4.28l3.88,5.61h5l-4.51-6.47a6.56,6.56,0,0,0,4.14-6.35A7,7,0,0,0,83.79,47a6.9,6.9,0,0,0-3-2.53,11.18,11.18,0,0,0-4.64-.89H67.4V63.68h4.66Zm0-10.72h3.79a4.89,4.89,0,0,1,3.19.91,3.63,3.63,0,0,1,0,5.19,4.83,4.83,0,0,1-3.19.92H72.06Z"/><path class="cls-1" d="M95.5,62.67a12.46,12.46,0,0,0,11.29,0,10.27,10.27,0,0,0,0-18.11,12.46,12.46,0,0,0-11.29,0,10,10,0,0,0-3.94,3.72,10.71,10.71,0,0,0,0,10.67A10,10,0,0,0,95.5,62.67Zm.17-12.39A5.88,5.88,0,0,1,97.93,48a6.74,6.74,0,0,1,6.44,0,5.89,5.89,0,0,1,2.26,2.29,7.2,7.2,0,0,1,0,6.67,5.89,5.89,0,0,1-2.26,2.29,6.74,6.74,0,0,1-6.44,0A5.88,5.88,0,0,1,95.68,57a7.2,7.2,0,0,1,0-6.67Z"/><path class="cls-1" d="M122.63,62.69A11.76,11.76,0,0,0,128.26,64a14.75,14.75,0,0,0,4.34-.66,12.15,12.15,0,0,0,3.8-1.9V53.3h-4.26v5.89a7.54,7.54,0,0,1-3.62.86,6.86,6.86,0,0,1-3.38-.82A5.9,5.9,0,0,1,122.83,57a7.14,7.14,0,0,1,0-6.7A5.77,5.77,0,0,1,125.16,48a7.11,7.11,0,0,1,3.42-.81,6.92,6.92,0,0,1,5.2,2.27l3-2.76a9.52,9.52,0,0,0-3.62-2.59,12.47,12.47,0,0,0-4.8-.89,12,12,0,0,0-5.69,1.34,9.9,9.9,0,0,0-4,3.71,10.82,10.82,0,0,0,0,10.72A10,10,0,0,0,122.63,62.69Z"/><path class="cls-1" d="M148.24,58.07h4.28l3.88,5.61h5l-4.51-6.47A6.56,6.56,0,0,0,161,50.86,7,7,0,0,0,160,47a6.91,6.91,0,0,0-3-2.53,11.19,11.19,0,0,0-4.64-.89h-8.71V63.68h4.66Zm0-10.72H152a4.89,4.89,0,0,1,3.19.91,3.63,3.63,0,0,1,0,5.19,4.83,4.83,0,0,1-3.19.92h-3.79Z"/><polygon class="cls-1" points="183.18 59.94 172.22 59.94 172.22 55.28 181.56 55.28 181.56 51.66 172.22 51.66 172.22 47.29 182.8 47.29 182.8 43.55 167.59 43.55 167.59 63.68 183.18 63.68 183.18 59.94"/><path class="cls-1" d="M199.33,59.7a5.7,5.7,0,0,1-2.93.59,11.54,11.54,0,0,1-3.57-.58,10.7,10.7,0,0,1-3.08-1.52l-1.58,3.51a10.84,10.84,0,0,0,3.58,1.68,16.49,16.49,0,0,0,4.61.65,11.78,11.78,0,0,0,4.69-.83,6.47,6.47,0,0,0,2.89-2.26,5.5,5.5,0,0,0,1-3.15,4.63,4.63,0,0,0-1-3.19,6.24,6.24,0,0,0-2.52-1.72,32.8,32.8,0,0,0-3.77-1.09,16.9,16.9,0,0,1-3.29-1,1.63,1.63,0,0,1-1.08-1.54,1.93,1.93,0,0,1,.93-1.67,5.23,5.23,0,0,1,2.89-.63,11.23,11.23,0,0,1,5.58,1.58L204,45a11.13,11.13,0,0,0-3.22-1.32,15.48,15.48,0,0,0-3.77-.46,11.68,11.68,0,0,0-4.67.83,6.38,6.38,0,0,0-2.86,2.26,5.6,5.6,0,0,0-.95,3.18,4.73,4.73,0,0,0,1,3.22,6.12,6.12,0,0,0,2.52,1.75,32.6,32.6,0,0,0,3.77,1.09q1.5.35,2.37.63a4.25,4.25,0,0,1,1.44.76,1.5,1.5,0,0,1,.56,1.19A1.78,1.78,0,0,1,199.33,59.7Z"/><path class="cls-1" d="M220.55,59.7a5.7,5.7,0,0,1-2.93.59,11.54,11.54,0,0,1-3.56-.58A10.7,10.7,0,0,1,211,58.19l-1.58,3.51A10.84,10.84,0,0,0,213,63.38a16.49,16.49,0,0,0,4.61.65,11.78,11.78,0,0,0,4.69-.83,6.47,6.47,0,0,0,2.89-2.26,5.49,5.49,0,0,0,1-3.15,4.63,4.63,0,0,0-1-3.19,6.24,6.24,0,0,0-2.52-1.72,32.8,32.8,0,0,0-3.77-1.09,16.9,16.9,0,0,1-3.29-1,1.63,1.63,0,0,1-1.08-1.54,1.93,1.93,0,0,1,.93-1.67,5.23,5.23,0,0,1,2.89-.63,11.22,11.22,0,0,1,5.58,1.58L225.26,45A11.12,11.12,0,0,0,222,43.67a15.47,15.47,0,0,0-3.77-.46,11.67,11.67,0,0,0-4.67.83,6.39,6.39,0,0,0-2.86,2.26,5.6,5.6,0,0,0-.95,3.18,4.74,4.74,0,0,0,1,3.22,6.13,6.13,0,0,0,2.52,1.75,32.57,32.57,0,0,0,3.77,1.09q1.49.35,2.37.63a4.27,4.27,0,0,1,1.44.76,1.5,1.5,0,0,1,.56,1.19A1.78,1.78,0,0,1,220.55,59.7Z"/><polygon class="cls-1" points="57.77 68.08 18.43 29 0.3 29 44.4 72.81 51.49 72.81 62.53 72.81 231.5 72.81 231.5 68.08 57.77 68.08"/></g></g></svg>