<?xml version="1.0" encoding="utf-8"?>
<!-- Generator: Adobe Illustrator 21.1.0, SVG Export Plug-In . SVG Version: 6.00 Build 0)  -->
<svg version="1.1" id="Layer_1" xmlns="http://www.w3.org/2000/svg" xmlns:xlink="http://www.w3.org/1999/xlink" x="0px" y="0px"
	 viewBox="0 0 24 24" style="enable-background:new 0 0 24 24;" xml:space="preserve">
<style type="text/css">
	.st0{fill:none;stroke:#FFFFFF;stroke-width:2;stroke-linecap:round;stroke-linejoin:round;}
	.st1{fill:none;stroke:#FFFFFF;stroke-linecap:round;stroke-linejoin:round;stroke-miterlimit:10;}
	.st2{fill:none;stroke:#FFFFFF;stroke-miterlimit:10;}
</style>
<path class="st0" d="M5,4h14c1.1,0,2,0.9,2,2v14c0,1.1-0.9,2-2,2H5c-1.1,0-2-0.9-2-2V6C3,4.9,3.9,4,5,4z"/>
<line class="st0" x1="16" y1="2" x2="16" y2="6"/>
<line class="st0" x1="8" y1="2" x2="8" y2="6"/>
<line class="st0" x1="3" y1="10" x2="21" y2="10"/>
<path class="st1" d="M8.1,14.7c0,0,0-1.3,1.4-1.3s1.3,1.3,1.3,1.3s0.1,1-1.3,1.1c0,0,1.6,0,1.6,1.4s-1.5,1.2-1.5,1.2
	c0,0-1.5,0.2-1.5-1.3"/>
<path class="st2" d="M14.5,13.4c0,0,1.5-0.1,1.5,2.5s-1.5,2.5-1.5,2.5s-1.7,0.2-1.7-2.5S14.5,13.4,14.5,13.4z"/>
</svg>
