<svg xmlns="http://www.w3.org/2000/svg" viewBox="0 0 265.1 40.77"><defs><style>.cls-1{fill:#fff;}</style></defs><title>Asset 4</title><g id="Layer_2" data-name="Layer 2"><g id="Layer_2-2" data-name="Layer 2"><path class="cls-1" d="M22.82,7a4.62,4.62,0,1,1,0,9.24H15.4l7,7H23A11.62,11.62,0,0,0,23,0H0L7,7Z"/><path class="cls-1" d="M50.72,26.3H56.3l5.05,5.23h6.51l-5.87-6a8.91,8.91,0,0,0,4-2.32,5.12,5.12,0,0,0,1.4-3.61A5.21,5.21,0,0,0,66,15.95,8.9,8.9,0,0,0,62,13.59a19.66,19.66,0,0,0-6-.83H44.66V31.53h6.06Zm0-10h4.94a8.25,8.25,0,0,1,4.15.84,2.77,2.77,0,0,1,0,4.84,8.13,8.13,0,0,1-4.15.86H50.72Z"/><path class="cls-1" d="M82.24,30.59a20.35,20.35,0,0,0,7.35,1.26,20.21,20.21,0,0,0,7.34-1.26,12.43,12.43,0,0,0,5.13-3.47,7.55,7.55,0,0,0,0-9.95,12.43,12.43,0,0,0-5.13-3.47,22,22,0,0,0-14.69,0,12.27,12.27,0,0,0-5.13,3.47,7.6,7.6,0,0,0,0,9.95A12.27,12.27,0,0,0,82.24,30.59ZM82.46,19A7,7,0,0,1,85.4,16.9a11.88,11.88,0,0,1,8.38,0A7,7,0,0,1,96.72,19a5.07,5.07,0,0,1,0,6.22,7,7,0,0,1-2.94,2.13,11.88,11.88,0,0,1-8.38,0,7,7,0,0,1-2.94-2.13,5.07,5.07,0,0,1,0-6.22Z"/><path class="cls-1" d="M119.54,30.6a20.37,20.37,0,0,0,7.33,1.25,26.28,26.28,0,0,0,5.65-.62,18.86,18.86,0,0,0,4.94-1.77V21.85h-5.54v5.5a13.07,13.07,0,0,1-4.71.81,11.86,11.86,0,0,1-4.4-.76,7.07,7.07,0,0,1-3-2.13,5,5,0,0,1,0-6.25,7,7,0,0,1,3-2.12,12.33,12.33,0,0,1,4.45-.75,10.92,10.92,0,0,1,6.77,2.12L138,15.68a13.14,13.14,0,0,0-4.71-2.41,22,22,0,0,0-6.25-.83,20.79,20.79,0,0,0-7.41,1.25,12.14,12.14,0,0,0-5.15,3.46,7.68,7.68,0,0,0,0,10A12.16,12.16,0,0,0,119.54,30.6Z"/><path class="cls-1" d="M154.88,26.3h5.58l5.05,5.23H172l-5.88-6a8.91,8.91,0,0,0,4-2.32,5.12,5.12,0,0,0,1.4-3.61,5.22,5.22,0,0,0-1.38-3.62,8.91,8.91,0,0,0-3.95-2.36,19.68,19.68,0,0,0-6-.83H148.82V31.53h6.06Zm0-10h4.94a8.25,8.25,0,0,1,4.15.84A2.77,2.77,0,0,1,164,22a8.13,8.13,0,0,1-4.15.86h-4.94Z"/><polygon class="cls-1" points="202.35 28.04 188.09 28.04 188.09 23.7 200.25 23.7 200.25 20.32 188.09 20.32 188.09 16.24 201.86 16.24 201.86 12.76 182.07 12.76 182.07 31.53 202.35 31.53 202.35 28.04"/><path class="cls-1" d="M225.38,27.81a9.94,9.94,0,0,1-3.82.55,20.53,20.53,0,0,1-4.64-.54,16.65,16.65,0,0,1-4-1.42l-2.06,3.27a17,17,0,0,0,4.66,1.57,29.46,29.46,0,0,0,6,.6,20.8,20.8,0,0,0,6.1-.78A8.57,8.57,0,0,0,231.39,29,4.19,4.19,0,0,0,232.64,26a3.62,3.62,0,0,0-1.37-3A8.75,8.75,0,0,0,228,21.45q-1.91-.51-4.9-1a28.75,28.75,0,0,1-4.28-.93q-1.4-.47-1.4-1.43t1.22-1.55a9,9,0,0,1,3.76-.59,19.17,19.17,0,0,1,7.26,1.47l1.87-3.3a18.06,18.06,0,0,0-4.19-1.23,27.77,27.77,0,0,0-4.9-.43,20.61,20.61,0,0,0-6.08.78,8.41,8.41,0,0,0-3.72,2.11,4.25,4.25,0,0,0-1.24,3,3.69,3.69,0,0,0,1.37,3A8.53,8.53,0,0,0,216,22.92q1.91.51,4.9,1,1.95.32,3.09.59a6.48,6.48,0,0,1,1.87.71,1.29,1.29,0,0,1,.73,1.11Q226.61,27.26,225.38,27.81Z"/><path class="cls-1" d="M255,27.81a9.93,9.93,0,0,1-3.82.55,20.52,20.52,0,0,1-4.64-.54,16.65,16.65,0,0,1-4-1.42l-2.06,3.27a17,17,0,0,0,4.66,1.57,29.46,29.46,0,0,0,6,.6,20.8,20.8,0,0,0,6.1-.78A8.56,8.56,0,0,0,261,29,4.18,4.18,0,0,0,262.26,26a3.62,3.62,0,0,0-1.37-3,8.75,8.75,0,0,0-3.27-1.61q-1.91-.51-4.9-1a28.76,28.76,0,0,1-4.28-.93Q247,19,247,18.07t1.22-1.55a9.05,9.05,0,0,1,3.76-.59,19.16,19.16,0,0,1,7.26,1.47l1.87-3.3a18,18,0,0,0-4.19-1.23,27.75,27.75,0,0,0-4.9-.43,20.6,20.6,0,0,0-6.08.78,8.42,8.42,0,0,0-3.72,2.11,4.25,4.25,0,0,0-1.23,3,3.69,3.69,0,0,0,1.37,3,8.54,8.54,0,0,0,3.27,1.64q1.91.51,4.9,1,1.94.32,3.09.59a6.51,6.51,0,0,1,1.87.71,1.29,1.29,0,0,1,.73,1.11Q256.23,27.26,255,27.81Z"/><polygon class="cls-1" points="32.34 38.12 10.32 16.24 0.17 16.24 24.86 40.77 28.83 40.77 35.01 40.77 265.1 40.77 265.1 38.12 32.34 38.12"/></g></g></svg>