<svg xmlns="http://www.w3.org/2000/svg" viewBox="0 0 265.1 40.77"><defs><style>.cls-1{fill:#fff;}</style></defs><title>Asset 3</title><g id="Layer_2" data-name="Layer 2"><g id="Layer_2-2" data-name="Layer 2"><path class="cls-1" d="M22.82,7a4.62,4.62,0,1,1,0,9.24H15.4l7,7H23A11.62,11.62,0,0,0,23,0H0L7,7Z"/><path class="cls-1" d="M50.72,28.1H56.3l5.05,7.3h6.51L62,27a8.89,8.89,0,0,0,4-3.24,8.88,8.88,0,0,0,1.4-5A9.08,9.08,0,0,0,66,13.66,9,9,0,0,0,62,10.37a14.56,14.56,0,0,0-6-1.16H44.66V35.4h6.06Zm0-14h4.94a6.37,6.37,0,0,1,4.15,1.18,4.15,4.15,0,0,1,1.42,3.39,4.16,4.16,0,0,1-1.42,3.37,6.29,6.29,0,0,1-4.15,1.2H50.72Z"/><path class="cls-1" d="M82.24,34.09a16.22,16.22,0,0,0,14.69,0,13.11,13.11,0,0,0,7-11.79,13.11,13.11,0,0,0-7-11.79,16.22,16.22,0,0,0-14.69,0,13.07,13.07,0,0,0-5.13,4.85,13.24,13.24,0,0,0-1.85,6.94,13.23,13.23,0,0,0,1.85,6.94A13.07,13.07,0,0,0,82.24,34.09ZM82.46,18a7.66,7.66,0,0,1,2.94-3,8.77,8.77,0,0,1,8.38,0,7.67,7.67,0,0,1,2.94,3,8.75,8.75,0,0,1,1.07,4.34,8.75,8.75,0,0,1-1.07,4.34,7.67,7.67,0,0,1-2.94,3,8.77,8.77,0,0,1-8.38,0,7.66,7.66,0,0,1-2.94-3,8.75,8.75,0,0,1-1.07-4.34A8.75,8.75,0,0,1,82.46,18Z"/><path class="cls-1" d="M119.54,34.11a15.31,15.31,0,0,0,7.33,1.74,19.19,19.19,0,0,0,5.65-.86,15.82,15.82,0,0,0,4.94-2.47V21.89h-5.54v7.67a9.82,9.82,0,0,1-4.71,1.12,8.93,8.93,0,0,1-4.4-1.07,7.68,7.68,0,0,1-3-3,8.61,8.61,0,0,1-1.09-4.34,8.69,8.69,0,0,1,1.09-4.38,7.51,7.51,0,0,1,3-3,9.26,9.26,0,0,1,4.45-1,9,9,0,0,1,6.77,3L138,13.28a12.39,12.39,0,0,0-4.71-3.37A16.23,16.23,0,0,0,127,8.76a15.61,15.61,0,0,0-7.41,1.74,12.89,12.89,0,0,0-5.15,4.83,13.31,13.31,0,0,0-1.85,7,13.31,13.31,0,0,0,1.85,7A13,13,0,0,0,119.54,34.11Z"/><path class="cls-1" d="M154.88,28.1h5.58l5.05,7.3H172L166.15,27a8.53,8.53,0,0,0,5.39-8.27,9.09,9.09,0,0,0-1.38-5.05,9,9,0,0,0-3.95-3.29,14.57,14.57,0,0,0-6-1.16H148.82V35.4h6.06Zm0-14h4.94A6.37,6.37,0,0,1,164,15.32a4.15,4.15,0,0,1,1.42,3.39A4.16,4.16,0,0,1,164,22.08a6.29,6.29,0,0,1-4.15,1.2h-4.94Z"/><polygon class="cls-1" points="202.35 30.54 188.09 30.54 188.09 24.47 200.25 24.47 200.25 19.76 188.09 19.76 188.09 14.07 201.86 14.07 201.86 9.21 182.07 9.21 182.07 35.4 202.35 35.4 202.35 30.54"/><path class="cls-1" d="M225.38,30.22a7.42,7.42,0,0,1-3.82.77,15,15,0,0,1-4.64-.75,13.93,13.93,0,0,1-4-2l-2.06,4.57A14.1,14.1,0,0,0,215.52,35a21.46,21.46,0,0,0,6,.84,15.33,15.33,0,0,0,6.1-1.08,8.42,8.42,0,0,0,3.76-2.94,7.15,7.15,0,0,0,1.25-4.1,6,6,0,0,0-1.37-4.15A8.12,8.12,0,0,0,228,21.33a42.69,42.69,0,0,0-4.9-1.42,22,22,0,0,1-4.28-1.29,2.12,2.12,0,0,1-1.4-2,2.51,2.51,0,0,1,1.22-2.17,6.8,6.8,0,0,1,3.76-.82,14.61,14.61,0,0,1,7.26,2.06l1.87-4.6a14.49,14.49,0,0,0-4.19-1.72,20.15,20.15,0,0,0-4.9-.6,15.2,15.2,0,0,0-6.08,1.08,8.31,8.31,0,0,0-3.72,2.94,7.29,7.29,0,0,0-1.24,4.13,6.16,6.16,0,0,0,1.37,4.19A8,8,0,0,0,216,23.39a42.43,42.43,0,0,0,4.9,1.42q1.95.45,3.09.82a5.53,5.53,0,0,1,1.87,1,2,2,0,0,1,.73,1.55A2.32,2.32,0,0,1,225.38,30.22Z"/><path class="cls-1" d="M255,30.22a7.41,7.41,0,0,1-3.82.77,15,15,0,0,1-4.64-.75,13.93,13.93,0,0,1-4-2l-2.06,4.57A14.1,14.1,0,0,0,245.14,35a21.46,21.46,0,0,0,6,.84,15.34,15.34,0,0,0,6.1-1.08A8.42,8.42,0,0,0,261,31.83a7.15,7.15,0,0,0,1.25-4.1,6,6,0,0,0-1.37-4.15,8.12,8.12,0,0,0-3.27-2.24,42.69,42.69,0,0,0-4.9-1.42,22,22,0,0,1-4.28-1.29,2.12,2.12,0,0,1-1.4-2,2.51,2.51,0,0,1,1.22-2.17,6.8,6.8,0,0,1,3.76-.82,14.61,14.61,0,0,1,7.26,2.06l1.87-4.6a14.47,14.47,0,0,0-4.19-1.72,20.14,20.14,0,0,0-4.9-.6A15.19,15.19,0,0,0,246,9.84a8.31,8.31,0,0,0-3.72,2.94A7.3,7.3,0,0,0,241,16.91a6.16,6.16,0,0,0,1.37,4.19,8,8,0,0,0,3.27,2.28,42.39,42.39,0,0,0,4.9,1.42q1.94.45,3.09.82a5.56,5.56,0,0,1,1.87,1,2,2,0,0,1,.73,1.55A2.32,2.32,0,0,1,255,30.22Z"/><polygon class="cls-1" points="32.34 38.12 10.32 16.24 0.17 16.24 24.86 40.77 28.83 40.77 35.01 40.77 265.1 40.77 265.1 38.12 32.34 38.12"/></g></g></svg>